<svg width="40" height="40" viewBox="0 0 40 40" fill="none" xmlns="http://www.w3.org/2000/svg">
<path d="M34.8644 21.96C34.9444 21.32 35.0044 20.68 35.0044 20C35.0044 19.32 34.9444 18.68 34.8644 18.04L39.0844 14.74C39.4644 14.44 39.5644 13.9 39.3244 13.46L35.3244 6.54C35.1444 6.22 34.8044 6.04 34.4444 6.04C34.3244 6.04 34.2044 6.06 34.1044 6.1L29.1244 8.1C28.0844 7.3 26.9644 6.64 25.7444 6.14L24.9844 0.84C24.9244 0.36 24.5044 0 24.0044 0H16.0044C15.5044 0 15.0844 0.36 15.0244 0.84L14.2644 6.14C13.0444 6.64 11.9244 7.32 10.8844 8.1L5.90444 6.1C5.78444 6.06 5.66444 6.04 5.54444 6.04C5.20444 6.04 4.86444 6.22 4.68444 6.54L0.684439 13.46C0.42444 13.9 0.54444 14.44 0.92444 14.74L5.14444 18.04C5.06444 18.68 5.00444 19.34 5.00444 20C5.00444 20.66 5.06444 21.32 5.14444 21.96L0.92444 25.26C0.54444 25.56 0.44444 26.1 0.684439 26.54L4.68444 33.46C4.86444 33.78 5.20444 33.96 5.56444 33.96C5.68444 33.96 5.80444 33.94 5.90444 33.9L10.8844 31.9C11.9244 32.7 13.0444 33.36 14.2644 33.86L15.0244 39.16C15.0844 39.64 15.5044 40 16.0044 40H24.0044C24.5044 40 24.9244 39.64 24.9844 39.16L25.7444 33.86C26.9644 33.36 28.0844 32.68 29.1244 31.9L34.1044 33.9C34.2244 33.94 34.3444 33.96 34.4644 33.96C34.8044 33.96 35.1444 33.78 35.3244 33.46L39.3244 26.54C39.5644 26.1 39.4644 25.56 39.0844 25.26L34.8644 21.96ZM30.9044 18.54C30.9844 19.16 31.0044 19.58 31.0044 20C31.0044 20.42 30.9644 20.86 30.9044 21.46L30.6244 23.72L32.4044 25.12L34.5644 26.8L33.1644 29.22L30.6244 28.2L28.5444 27.36L26.7444 28.72C25.8844 29.36 25.0644 29.84 24.2444 30.18L22.1244 31.04L21.8044 33.3L21.4044 36H18.6044L17.9044 31.04L15.7844 30.18C14.9244 29.82 14.1244 29.36 13.3244 28.76L11.5044 27.36L9.38444 28.22L6.84444 29.24L5.44444 26.82L7.60444 25.14L9.38444 23.74L9.10444 21.48C9.04444 20.86 9.00444 20.4 9.00444 20C9.00444 19.6 9.04444 19.14 9.10444 18.54L9.38444 16.28L7.60444 14.88L5.44444 13.2L6.84444 10.78L9.38444 11.8L11.4644 12.64L13.2644 11.28C14.1244 10.64 14.9444 10.16 15.7644 9.82L17.8844 8.96L18.2044 6.7L18.6044 4H21.3844L22.0844 8.96L24.2044 9.82C25.0644 10.18 25.8644 10.64 26.6644 11.24L28.4844 12.64L30.6044 11.78L33.1444 10.76L34.5444 13.18L32.4044 14.88L30.6244 16.28L30.9044 18.54ZM20.0044 12C15.5844 12 12.0044 15.58 12.0044 20C12.0044 24.42 15.5844 28 20.0044 28C24.4244 28 28.0044 24.42 28.0044 20C28.0044 15.58 24.4244 12 20.0044 12ZM20.0044 24C17.8044 24 16.0044 22.2 16.0044 20C16.0044 17.8 17.8044 16 20.0044 16C22.2044 16 24.0044 17.8 24.0044 20C24.0044 22.2 22.2044 24 20.0044 24Z" fill="#FFFDFD"/>
</svg>
