<svg width="48" height="48" viewBox="0 0 48 48" fill="none" xmlns="http://www.w3.org/2000/svg">
<path fill-rule="evenodd" clip-rule="evenodd" d="M0 47.991V0H48V47.991H0ZM3.98791 44.0032H44.0122V3.98133H3.98791V44.0032ZM18.5106 21.7259H20.1095V24.6015H23.0577V21.7259H24.6564V28.9929H23.0577V26.0757H20.1095V28.9929H18.5106V21.7259ZM27.8999 23.2946V16.0275H29.4988V23.2946H27.8999ZM32.7414 30.6208H34.4648L36.375 33.6938L38.285 30.6208H40.0084V37.8879H38.4201V33.1435L36.375 36.2477H36.3333L34.309 33.1746V37.8879H32.7414V30.6208ZM15.2671 18.2912H13.5437L11.6335 15.2182L9.72332 18.2912H8.00004V11.0242H9.58839V15.7685L11.6335 12.6644H11.675L13.6994 15.7373V11.0242H15.2671V18.2912Z" fill="black"/>
<mask id="mask0_1453_3622" style="mask-type:alpha" maskUnits="userSpaceOnUse" x="0" y="0" width="48" height="48">
<path fill-rule="evenodd" clip-rule="evenodd" d="M0 47.991V0H48V47.991H0ZM3.98791 44.0032H44.0122V3.98133H3.98791V44.0032ZM18.5106 21.7259H20.1095V24.6015H23.0577V21.7259H24.6564V28.9929H23.0577V26.0757H20.1095V28.9929H18.5106V21.7259ZM27.8999 23.2946V16.0275H29.4988V23.2946H27.8999ZM32.7414 30.6208H34.4648L36.375 33.6938L38.285 30.6208H40.0084V37.8879H38.4201V33.1435L36.375 36.2477H36.3333L34.309 33.1746V37.8879H32.7414V30.6208ZM15.2671 18.2912H13.5437L11.6335 15.2182L9.72332 18.2912H8.00004V11.0242H9.58839V15.7685L11.6335 12.6644H11.675L13.6994 15.7373V11.0242H15.2671V18.2912Z" fill="white"/>
</mask>
<g mask="url(#mask0_1453_3622)">
<rect width="48" height="48" fill="white"/>
</g>
</svg>